<svg xmlns="http://www.w3.org/2000/svg" viewBox="40 -10 1060 792" width="1060" height="792" font-family="Virgil, Comic Sans MS, sans-serif">
<defs>
<marker id="ah" viewBox="0 0 10 10" refX="9" refY="5" markerWidth="6" markerHeight="6" orient="auto-start-reverse"><path d="M0,0 L10,5 L0,10 z" fill="context-stroke"/></marker>
</defs>
<rect x="41" y="-9" width="1058" height="790" fill="#ffffff" stroke="#9ca3af" stroke-width="2" rx="6" ry="6"/>
<text x="600.0" y="32.099999999999994" font-size="26" fill="#1e1e1e" text-anchor="middle" opacity="1.0">Identity-Aware Access — Architecture</text>
<rect x="60" y="80" width="200" height="100" rx="8" ry="8" fill="#a5d8ff" stroke="#4a9eed" stroke-width="2" opacity="1.0"/>
<text x="160.0" y="122.8" font-size="18" fill="#1e1e1e" text-anchor="middle">User</text>
<text x="160.0" y="145.3" font-size="18" fill="#1e1e1e" text-anchor="middle">(alice / bob)</text>
<rect x="460" y="80" width="280" height="100" rx="8" ry="8" fill="#ffd8a8" stroke="#f59e0b" stroke-width="2" opacity="1.0"/>
<text x="600.0" y="123.2" font-size="17" fill="#1e1e1e" text-anchor="middle">Keycloak (IdP)</text>
<text x="600.0" y="144.45" font-size="17" fill="#1e1e1e" text-anchor="middle">issues JWTs + OIDC sessions</text>
<path d="M 260 115 L 460 115" fill="none" stroke="#4a9eed" stroke-width="2" marker-end="url(#ah)" opacity="1.0"/>
<text x="360.0" y="105.0" font-size="15" fill="#ffffff" stroke="#ffffff" stroke-width="4" text-anchor="middle" paint-order="stroke">1. login</text>
<text x="360.0" y="105.0" font-size="15" fill="#4a9eed" text-anchor="middle">1. login</text>
<path d="M 460 145 L 260 145" fill="none" stroke="#f59e0b" stroke-width="2" stroke-dasharray="8 4" marker-end="url(#ah)" opacity="1.0"/>
<text x="360.0" y="135.0" font-size="15" fill="#ffffff" stroke="#ffffff" stroke-width="4" text-anchor="middle" paint-order="stroke">2. JWT / session</text>
<text x="360.0" y="135.0" font-size="15" fill="#f59e0b" text-anchor="middle">2. JWT / session</text>
<rect x="60" y="300" width="400" height="110" rx="8" ry="8" fill="#d0bfff" stroke="#8b5cf6" stroke-width="2" opacity="1.0"/>
<text x="260.0" y="348.2" font-size="17" fill="#1e1e1e" text-anchor="middle">Envoy   port 8080</text>
<text x="260.0" y="369.45" font-size="17" fill="#1e1e1e" text-anchor="middle">jwt_authn (JWKS)  -&gt;  rbac  -&gt;  route</text>
<rect x="540" y="300" width="200" height="110" rx="8" ry="8" fill="#b2f2bb" stroke="#22c55e" stroke-width="2" opacity="1.0"/>
<text x="640.0" y="347.8" font-size="18" fill="#1e1e1e" text-anchor="middle">Grafana</text>
<text x="640.0" y="370.3" font-size="18" fill="#1e1e1e" text-anchor="middle">OIDC client</text>
<rect x="820" y="300" width="260" height="110" rx="8" ry="8" fill="#ffd8a8" stroke="#f59e0b" stroke-width="2" opacity="1.0"/>
<text x="950.0" y="348.2" font-size="17" fill="#1e1e1e" text-anchor="middle">sshd  port 2222</text>
<text x="950.0" y="369.45" font-size="17" fill="#1e1e1e" text-anchor="middle">TrustedUserCAKeys</text>
<path d="M 140 180 L 140 300" fill="none" stroke="#4a9eed" stroke-width="2" marker-end="url(#ah)" opacity="1.0"/>
<text x="130.0" y="240.0" font-size="15" fill="#ffffff" stroke="#ffffff" stroke-width="4" text-anchor="middle" paint-order="stroke">Bearer JWT</text>
<text x="130.0" y="240.0" font-size="15" fill="#4a9eed" text-anchor="middle">Bearer JWT</text>
<path d="M 180 180 L 180 240 L 640 240 L 640 300" fill="none" stroke="#22c55e" stroke-width="2" marker-end="url(#ah)" opacity="1.0"/>
<text x="410.0" y="230.0" font-size="15" fill="#ffffff" stroke="#ffffff" stroke-width="4" text-anchor="middle" paint-order="stroke">OIDC code flow</text>
<text x="410.0" y="230.0" font-size="15" fill="#22c55e" text-anchor="middle">OIDC code flow</text>
<path d="M 220 180 L 220 270 L 950 270 L 950 300" fill="none" stroke="#f59e0b" stroke-width="2" marker-end="url(#ah)" opacity="1.0"/>
<text x="555.0" y="260.0" font-size="15" fill="#ffffff" stroke="#ffffff" stroke-width="4" text-anchor="middle" paint-order="stroke">ssh -i cert</text>
<text x="555.0" y="260.0" font-size="15" fill="#f59e0b" text-anchor="middle">ssh -i cert</text>
<rect x="60" y="480" width="110" height="80" rx="8" ry="8" fill="#b2f2bb" stroke="#22c55e" stroke-width="2" opacity="1.0"/>
<text x="115.0" y="513.6" font-size="16" fill="#1e1e1e" text-anchor="middle">public</text>
<text x="115.0" y="533.6" font-size="16" fill="#1e1e1e" text-anchor="middle">app</text>
<rect x="190" y="480" width="110" height="80" rx="8" ry="8" fill="#b2f2bb" stroke="#22c55e" stroke-width="2" opacity="1.0"/>
<text x="245.0" y="513.6" font-size="16" fill="#1e1e1e" text-anchor="middle">alice</text>
<text x="245.0" y="533.6" font-size="16" fill="#1e1e1e" text-anchor="middle">app</text>
<rect x="320" y="480" width="110" height="80" rx="8" ry="8" fill="#b2f2bb" stroke="#22c55e" stroke-width="2" opacity="1.0"/>
<text x="375.0" y="513.6" font-size="16" fill="#1e1e1e" text-anchor="middle">bob</text>
<text x="375.0" y="533.6" font-size="16" fill="#1e1e1e" text-anchor="middle">app</text>
<rect x="450" y="480" width="140" height="80" rx="8" ry="8" fill="#b2f2bb" stroke="#22c55e" stroke-width="2" opacity="1.0"/>
<text x="520.0" y="513.6" font-size="16" fill="#1e1e1e" text-anchor="middle">db-app</text>
<text x="520.0" y="533.6" font-size="16" fill="#1e1e1e" text-anchor="middle">SET ROLE</text>
<rect x="610" y="480" width="140" height="80" rx="8" ry="8" fill="#b2f2bb" stroke="#22c55e" stroke-width="2" opacity="1.0"/>
<text x="680.0" y="513.6" font-size="16" fill="#1e1e1e" text-anchor="middle">ssh-ca</text>
<text x="680.0" y="533.6" font-size="16" fill="#1e1e1e" text-anchor="middle">signs certs</text>
<path d="M 115 410 L 115 480" fill="none" stroke="#1e1e1e" stroke-width="2" marker-end="url(#ah)" opacity="1.0"/>
<path d="M 245 410 L 245 480" fill="none" stroke="#1e1e1e" stroke-width="2" marker-end="url(#ah)" opacity="1.0"/>
<path d="M 375 410 L 375 480" fill="none" stroke="#1e1e1e" stroke-width="2" marker-end="url(#ah)" opacity="1.0"/>
<path d="M 460 410 L 460 440 L 520 440 L 520 480" fill="none" stroke="#1e1e1e" stroke-width="2" marker-end="url(#ah)" opacity="1.0"/>
<path d="M 460 410 L 460 450 L 680 450 L 680 480" fill="none" stroke="#1e1e1e" stroke-width="2" marker-end="url(#ah)" opacity="1.0"/>
<rect x="450" y="620" width="140" height="70" rx="8" ry="8" fill="#c3fae8" stroke="#06b6d4" stroke-width="2" opacity="1.0"/>
<text x="520.0" y="648.6" font-size="16" fill="#1e1e1e" text-anchor="middle">Postgres</text>
<text x="520.0" y="668.6" font-size="16" fill="#1e1e1e" text-anchor="middle">(RLS)</text>
<path d="M 520 560 L 520 620" fill="none" stroke="#06b6d4" stroke-width="2" marker-end="url(#ah)" opacity="1.0"/>
<text x="510.0" y="590.0" font-size="14" fill="#ffffff" stroke="#ffffff" stroke-width="4" text-anchor="middle" paint-order="stroke">SET LOCAL ROLE</text>
<text x="510.0" y="590.0" font-size="14" fill="#06b6d4" text-anchor="middle">SET LOCAL ROLE</text>
<path d="M 700 480 L 700 440 L 870 440 L 870 410" fill="none" stroke="#f59e0b" stroke-width="2" stroke-dasharray="8 4" marker-end="url(#ah)" opacity="1.0"/>
<text x="780.0" y="430.0" font-size="14" fill="#ffffff" stroke="#ffffff" stroke-width="4" text-anchor="middle" paint-order="stroke">trusts CA pubkey</text>
<text x="780.0" y="430.0" font-size="14" fill="#f59e0b" text-anchor="middle">trusts CA pubkey</text>
<text x="580.0" y="752.75" font-size="15" fill="#15803d" text-anchor="middle" opacity="1.0">All credentials at the resource layer are short-lived (5-min JWT, 15-min SSH cert) — no long-lived secrets.</text>
</svg>