<svg xmlns="http://www.w3.org/2000/svg" viewBox="10 -8 780 601" width="780" height="601" font-family="Virgil, Comic Sans MS, sans-serif">
<defs>
<marker id="ah" viewBox="0 0 10 10" refX="9" refY="5" markerWidth="6" markerHeight="6" orient="auto-start-reverse"><path d="M0,0 L10,5 L0,10 z" fill="context-stroke"/></marker>
</defs>
<rect x="11" y="-7" width="778" height="599" fill="#ffffff" stroke="#9ca3af" stroke-width="2" rx="6" ry="6"/>
<text x="400.0" y="30.7" font-size="22" fill="#1e1e1e" text-anchor="middle" opacity="1.0">OAuth2 + OIDC Flow with Keycloak</text>
<rect x="30" y="60" width="110" height="50" rx="8" ry="8" fill="#a5d8ff" stroke="#4a9eed" stroke-width="2" opacity="1.0"/>
<text x="85.0" y="79.8" font-size="13" fill="#1e1e1e" text-anchor="middle">Resource</text>
<text x="85.0" y="96.05" font-size="13" fill="#1e1e1e" text-anchor="middle">Owner</text>
<rect x="180" y="60" width="110" height="50" rx="8" ry="8" fill="#a5d8ff" stroke="#4a9eed" stroke-width="2" opacity="1.0"/>
<text x="235.0" y="79.4" font-size="14" fill="#1e1e1e" text-anchor="middle">Client</text>
<text x="235.0" y="96.9" font-size="14" fill="#1e1e1e" text-anchor="middle">(curl)</text>
<rect x="330" y="60" width="140" height="50" rx="8" ry="8" fill="#ffd8a8" stroke="#f59e0b" stroke-width="2" opacity="1.0"/>
<text x="400.0" y="88.15" font-size="14" fill="#1e1e1e" text-anchor="middle">Keycloak (IdP)</text>
<rect x="510" y="60" width="110" height="50" rx="8" ry="8" fill="#d0bfff" stroke="#8b5cf6" stroke-width="2" opacity="1.0"/>
<text x="565.0" y="88.15" font-size="14" fill="#1e1e1e" text-anchor="middle">Envoy</text>
<rect x="660" y="60" width="110" height="50" rx="8" ry="8" fill="#b2f2bb" stroke="#22c55e" stroke-width="2" opacity="1.0"/>
<text x="715.0" y="88.15" font-size="14" fill="#1e1e1e" text-anchor="middle">Backend</text>
<path d="M 85 110 L 85 520" fill="none" stroke="#b0b0b0" stroke-width="1" stroke-dasharray="8 4" opacity="1.0"/>
<path d="M 235 110 L 235 520" fill="none" stroke="#b0b0b0" stroke-width="1" stroke-dasharray="8 4" opacity="1.0"/>
<path d="M 400 110 L 400 520" fill="none" stroke="#b0b0b0" stroke-width="1" stroke-dasharray="8 4" opacity="1.0"/>
<path d="M 565 110 L 565 520" fill="none" stroke="#b0b0b0" stroke-width="1" stroke-dasharray="8 4" opacity="1.0"/>
<path d="M 715 110 L 715 520" fill="none" stroke="#b0b0b0" stroke-width="1" stroke-dasharray="8 4" opacity="1.0"/>
<path d="M 85 150 L 235 150" fill="none" stroke="#4a9eed" stroke-width="2" marker-end="url(#ah)" opacity="1.0"/>
<text x="160.0" y="140.0" font-size="13" fill="#ffffff" stroke="#ffffff" stroke-width="4" text-anchor="middle" paint-order="stroke">1. credentials</text>
<text x="160.0" y="140.0" font-size="13" fill="#4a9eed" text-anchor="middle">1. credentials</text>
<path d="M 235 200 L 400 200" fill="none" stroke="#4a9eed" stroke-width="2" marker-end="url(#ah)" opacity="1.0"/>
<text x="317.5" y="190.0" font-size="13" fill="#ffffff" stroke="#ffffff" stroke-width="4" text-anchor="middle" paint-order="stroke">2. POST /token</text>
<text x="317.5" y="190.0" font-size="13" fill="#4a9eed" text-anchor="middle">2. POST /token</text>
<path d="M 400 250 L 235 250" fill="none" stroke="#f59e0b" stroke-width="2" stroke-dasharray="8 4" marker-end="url(#ah)" opacity="1.0"/>
<text x="317.5" y="240.0" font-size="13" fill="#ffffff" stroke="#ffffff" stroke-width="4" text-anchor="middle" paint-order="stroke">3. access JWT + refresh</text>
<text x="317.5" y="240.0" font-size="13" fill="#f59e0b" text-anchor="middle">3. access JWT + refresh</text>
<path d="M 235 300 L 565 300" fill="none" stroke="#4a9eed" stroke-width="2" marker-end="url(#ah)" opacity="1.0"/>
<text x="400.0" y="290.0" font-size="13" fill="#ffffff" stroke="#ffffff" stroke-width="4" text-anchor="middle" paint-order="stroke">4. Authorization: Bearer JWT</text>
<text x="400.0" y="290.0" font-size="13" fill="#4a9eed" text-anchor="middle">4. Authorization: Bearer JWT</text>
<path d="M 565 350 L 400 350" fill="none" stroke="#8b5cf6" stroke-width="2" marker-end="url(#ah)" opacity="1.0"/>
<text x="482.5" y="340.0" font-size="13" fill="#ffffff" stroke="#ffffff" stroke-width="4" text-anchor="middle" paint-order="stroke">5. JWKS lookup</text>
<text x="482.5" y="340.0" font-size="13" fill="#8b5cf6" text-anchor="middle">5. JWKS lookup</text>
<path d="M 400 400 L 565 400" fill="none" stroke="#f59e0b" stroke-width="2" stroke-dasharray="8 4" marker-end="url(#ah)" opacity="1.0"/>
<text x="482.5" y="390.0" font-size="13" fill="#ffffff" stroke="#ffffff" stroke-width="4" text-anchor="middle" paint-order="stroke">6. public key (by kid)</text>
<text x="482.5" y="390.0" font-size="13" fill="#f59e0b" text-anchor="middle">6. public key (by kid)</text>
<path d="M 565 450 L 715 450" fill="none" stroke="#22c55e" stroke-width="2" marker-end="url(#ah)" opacity="1.0"/>
<text x="640.0" y="440.0" font-size="13" fill="#ffffff" stroke="#ffffff" stroke-width="4" text-anchor="middle" paint-order="stroke">7. forward (RBAC ok)</text>
<text x="640.0" y="440.0" font-size="13" fill="#22c55e" text-anchor="middle">7. forward (RBAC ok)</text>
<path d="M 715 500 L 85 500" fill="none" stroke="#22c55e" stroke-width="2" stroke-dasharray="8 4" marker-end="url(#ah)" opacity="1.0"/>
<text x="400.0" y="490.0" font-size="13" fill="#ffffff" stroke="#ffffff" stroke-width="4" text-anchor="middle" paint-order="stroke">8. response</text>
<text x="400.0" y="490.0" font-size="13" fill="#22c55e" text-anchor="middle">8. response</text>
<text x="400.0" y="565.2" font-size="12" fill="#15803d" text-anchor="middle" opacity="1.0">OAuth2 = authorization framework   |   OIDC = identity layer   |   JWT carries identity end-to-end</text>
</svg>