<svg xmlns="http://www.w3.org/2000/svg" viewBox="10 -10 780 570" width="780" height="570" font-family="Virgil, Comic Sans MS, sans-serif">
<defs>
<marker id="ah" viewBox="0 0 10 10" refX="9" refY="5" markerWidth="6" markerHeight="6" orient="auto-start-reverse"><path d="M0,0 L10,5 L0,10 z" fill="context-stroke"/></marker>
</defs>
<rect x="11" y="-9" width="778" height="568" fill="#ffffff" stroke="#9ca3af" stroke-width="2" rx="6" ry="6"/>
<text x="410.0" y="28.7" font-size="22" fill="#1e1e1e" text-anchor="middle" opacity="1.0">Postgres RLS — Bridging Keycloak Identity</text>
<rect x="30" y="110" width="140" height="80" rx="8" ry="8" fill="#d0bfff" stroke="#8b5cf6" stroke-width="2" opacity="1.0"/>
<text x="100.0" y="144.4" font-size="14" fill="#1e1e1e" text-anchor="middle">Envoy</text>
<text x="100.0" y="161.9" font-size="14" fill="#1e1e1e" text-anchor="middle">x-jwt-payload</text>
<rect x="210" y="110" width="200" height="260" rx="8" ry="8" fill="#fff3bf" stroke="#f59e0b" stroke-width="2" opacity="0.35"/>
<text x="310.0" y="134.45" font-size="17" fill="#b45309" text-anchor="middle" opacity="1.0">db-app</text>
<rect x="230" y="150" width="160" height="50" rx="8" ry="8" fill="#fff3bf" stroke="#f59e0b" stroke-width="2" opacity="1.0"/>
<text x="310.0" y="177.925" font-size="13" fill="#1e1e1e" text-anchor="middle">decode header</text>
<rect x="230" y="210" width="160" height="50" rx="8" ry="8" fill="#fff3bf" stroke="#f59e0b" stroke-width="2" opacity="1.0"/>
<text x="310.0" y="237.925" font-size="13" fill="#1e1e1e" text-anchor="middle">allowlist check</text>
<rect x="230" y="270" width="160" height="40" rx="8" ry="8" fill="#a5d8ff" stroke="#4a9eed" stroke-width="2" opacity="1.0"/>
<text x="310.0" y="292.925" font-size="13" fill="#1e1e1e" text-anchor="middle">BEGIN</text>
<rect x="230" y="320" width="160" height="40" rx="8" ry="8" fill="#a5d8ff" stroke="#4a9eed" stroke-width="2" opacity="1.0"/>
<text x="310.0" y="342.7" font-size="12" fill="#1e1e1e" text-anchor="middle">SET LOCAL ROLE alice</text>
<rect x="450" y="80" width="320" height="420" rx="8" ry="8" fill="#d3f9d8" stroke="#22c55e" stroke-width="2" opacity="0.35"/>
<text x="595.0" y="105.3" font-size="18" fill="#15803d" text-anchor="middle" opacity="1.0">Postgres</text>
<rect x="470" y="130" width="280" height="50" rx="8" ry="8" fill="#b2f2bb" stroke="#22c55e" stroke-width="2" opacity="1.0"/>
<text x="610.0" y="157.925" font-size="13" fill="#1e1e1e" text-anchor="middle">login role: dbproxy (NOINHERIT)</text>
<rect x="480" y="200" width="120" height="50" rx="8" ry="8" fill="#b2f2bb" stroke="#22c55e" stroke-width="2" opacity="1.0"/>
<text x="540.0" y="227.7" font-size="12" fill="#1e1e1e" text-anchor="middle">role: alice</text>
<rect x="620" y="200" width="120" height="50" rx="8" ry="8" fill="#b2f2bb" stroke="#22c55e" stroke-width="2" opacity="1.0"/>
<text x="680.0" y="227.7" font-size="12" fill="#1e1e1e" text-anchor="middle">role: bob</text>
<rect x="470" y="280" width="280" height="80" rx="8" ry="8" fill="#c3fae8" stroke="#06b6d4" stroke-width="2" opacity="1.0"/>
<text x="610.0" y="322.925" font-size="13" fill="#1e1e1e" text-anchor="middle">documents (FORCE RLS)</text>
<rect x="470" y="380" width="280" height="100" rx="8" ry="8" fill="#fff3bf" stroke="#f59e0b" stroke-width="2" opacity="1.0"/>
<text x="610.0" y="432.7" font-size="12" fill="#1e1e1e" text-anchor="middle">Policy: owner=current_user OR public</text>
<path d="M 170 150 L 210 170" fill="none" stroke="#8b5cf6" stroke-width="2" marker-end="url(#ah)" opacity="1.0"/>
<text x="194.47213595499957" y="151.05572809000085" font-size="12" fill="#ffffff" stroke="#ffffff" stroke-width="4" text-anchor="middle" paint-order="stroke">hdr</text>
<text x="194.47213595499957" y="151.05572809000085" font-size="12" fill="#8b5cf6" text-anchor="middle">hdr</text>
<path d="M 390 155 L 470 155" fill="none" stroke="#22c55e" stroke-width="2" marker-end="url(#ah)" opacity="1.0"/>
<text x="430.0" y="145.0" font-size="12" fill="#ffffff" stroke="#ffffff" stroke-width="4" text-anchor="middle" paint-order="stroke">connect</text>
<text x="430.0" y="145.0" font-size="12" fill="#22c55e" text-anchor="middle">connect</text>
<path d="M 390 340 L 470 225" fill="none" stroke="#4a9eed" stroke-width="2" marker-end="url(#ah)" opacity="1.0"/>
<text x="421.7909479821451" y="276.789355118014" font-size="12" fill="#ffffff" stroke="#ffffff" stroke-width="4" text-anchor="middle" paint-order="stroke">SET ROLE</text>
<text x="421.7909479821451" y="276.789355118014" font-size="12" fill="#4a9eed" text-anchor="middle">SET ROLE</text>
<path d="M 540 250 L 540 280" fill="none" stroke="#22c55e" stroke-width="2" marker-end="url(#ah)" opacity="1.0"/>
<text x="530.0" y="265.0" font-size="12" fill="#ffffff" stroke="#ffffff" stroke-width="4" text-anchor="middle" paint-order="stroke">SELECT</text>
<text x="530.0" y="265.0" font-size="12" fill="#22c55e" text-anchor="middle">SELECT</text>
<path d="M 610 360 L 610 380" fill="none" stroke="#22c55e" stroke-width="2" stroke-dasharray="8 4" marker-end="url(#ah)" opacity="1.0"/>
<text x="600.0" y="370.0" font-size="12" fill="#ffffff" stroke="#ffffff" stroke-width="4" text-anchor="middle" paint-order="stroke">RLS</text>
<text x="600.0" y="370.0" font-size="12" fill="#22c55e" text-anchor="middle">RLS</text>
<text x="170.0" y="491.05" font-size="13" fill="#ef4444" text-anchor="middle" opacity="1.0">Trust boundary at the DB.</text>
<text x="170.0" y="507.3" font-size="13" fill="#ef4444" text-anchor="middle" opacity="1.0">SET LOCAL = per-tx (pool-safe).</text>
<text x="170.0" y="523.55" font-size="13" fill="#ef4444" text-anchor="middle" opacity="1.0">Authz enforced by data, not app.</text>
</svg>